<?xml version="1.0" encoding="utf-8"?>
<!-- Generator: Adobe Illustrator 19.1.0, SVG Export Plug-In . SVG Version: 6.00 Build 0)  -->
<svg version="1.1" id="Layer_1" xmlns="http://www.w3.org/2000/svg" xmlns:xlink="http://www.w3.org/1999/xlink" x="0px" y="0px"
	 viewBox="29 96 120 60" style="enable-background:new 29 96 120 60;" xml:space="preserve">
<style type="text/css">
	.st0{fill:#FFFFFF;stroke:#262626;stroke-width:3.457;stroke-miterlimit:10;}
	.st1{fill:#262626;}
</style>
<path class="st0" d="M7.9,119.1"/>
<g>
	<path class="st1" d="M100.8,108.7c-1.2,0-2.4,0.1-3.6,0.3c-0.9-2.9-2.6-5.6-4.9-7.6c-2.9-2.5-6.6-3.9-10.4-3.9
		c-8.8,0-15.9,7.1-15.9,15.9c0,0.5,0,1.1,0.1,1.6c-3.2,1.5-6,3.8-8.1,6.8c-2.4,3.5-3.7,7.5-3.7,11.7c0,11.3,9.2,20.4,20.4,20.4h26.1
		c12.5,0,22.6-10.2,22.6-22.6S113.3,108.7,100.8,108.7z M100.8,150.1H74.7c-9.1,0-16.6-7.4-16.6-16.6c0-6.9,4.3-13.1,10.7-15.5
		l1.5-0.6l-0.3-1.6c-0.2-0.8-0.2-1.6-0.2-2.4c0-6.7,5.4-12.1,12.1-12.1c6,0,11,4.3,11.9,10.2l0.3,2.1l2.1-0.5c1.5-0.4,3-0.6,4.6-0.6
		c10.4,0,18.8,8.4,18.8,18.8S111.2,150.1,100.8,150.1z"/>
</g>
</svg>
