<?xml version="1.0" encoding="utf-8"?>
<!-- Generator: Adobe Illustrator 19.1.0, SVG Export Plug-In . SVG Version: 6.00 Build 0)  -->
<svg version="1.1" id="Layer_1" xmlns="http://www.w3.org/2000/svg" xmlns:xlink="http://www.w3.org/1999/xlink" x="0px" y="0px"
	 viewBox="29 96 120 60" style="enable-background:new 29 96 120 60;" xml:space="preserve">
<style type="text/css">
	.st0{fill:#FFFFFF;stroke:#262626;stroke-width:3.457;stroke-miterlimit:10;}
	.st1{fill:#262626;}
</style>
<path class="st0" d="M7.9,119.1"/>
<g>
	<path class="st1" d="M97.6,101.8c-1.7,0-3.5,0.2-5.2,0.5c-3-3-7-4.8-11.3-4.8c-8.7,0-15.7,7-15.7,15.7c0,0.5,0,1,0.1,1.5
		c-6.4,3.3-10.4,10-10.4,17.2c0,4.7,1.7,9,4.4,12.3c-0.8,1.6-1,3.3-0.5,5c0.5,1.8,1.7,3.3,3.3,4.3c1.1,0.6,2.3,0.9,3.5,0.9
		c2.4,0,4.7-1.3,6-3.3c0.9,0.1,1.8,0.2,2.8,0.2h23c13.7,0,24.9-11.1,24.9-24.9C122.5,113,111.3,101.8,97.6,101.8z M68.8,149.2
		c-0.6,1-1.7,1.7-2.9,1.7c-0.6,0-1.2-0.2-1.7-0.4c-0.8-0.4-1.3-1.2-1.5-2c-0.2-0.9-0.1-1.8,0.3-2.5c0.6-1,3.5-3,6.6-4.7
		C69.6,144.7,69.3,148.3,68.8,149.2z M97.6,147.8h-23c-0.6,0-1.1,0-1.7-0.1c0.5-3.5,0.4-8,0.3-9.7c0-0.6-0.4-1.2-0.9-1.5
		c-0.5-0.3-1.2-0.3-1.8,0c-1.5,0.8-5.6,3-8.4,5.2c-2-2.6-3.2-5.9-3.2-9.5c0-6.3,3.7-11.9,9.5-14.4l1.4-0.6l-0.3-1.5
		c-0.1-0.8-0.2-1.5-0.2-2.3c0-6.6,5.4-12,12-12c3.6,0,6.9,1.6,9.2,4.3l0.8,0.9l1.1-0.3c1.7-0.5,3.5-0.7,5.3-0.7
		c11.7,0,21.1,9.5,21.1,21.1S109.3,147.8,97.6,147.8z"/>
</g>
</svg>
