<?xml version="1.0" encoding="utf-8"?>
<!-- Generator: Adobe Illustrator 19.1.0, SVG Export Plug-In . SVG Version: 6.00 Build 0)  -->
<svg version="1.1" id="Layer_1" xmlns="http://www.w3.org/2000/svg" xmlns:xlink="http://www.w3.org/1999/xlink" x="0px" y="0px"
	 viewBox="29 96 120 60" style="enable-background:new 29 96 120 60;" xml:space="preserve">
<style type="text/css">
	.st0{fill:#FFFFFF;stroke:#262626;stroke-width:3.457;stroke-miterlimit:10;}
	.st1{fill:#262626;}
</style>
<path class="st0" d="M7.9,119.1"/>
<g>
	<path class="st1" d="M101.2,107.9c-1.2,0-2.5,0.1-3.7,0.3c-0.9-3.1-2.7-5.8-5.1-7.9c-3-2.6-6.8-4-10.8-4c-9.1,0-16.6,7.4-16.6,16.6
		c0,0.5,0,1.1,0.1,1.6c-3.3,1.6-6.2,4-8.4,7c-2.5,3.6-3.9,7.8-3.9,12.2c0,3.6,0.9,7,2.5,10c-0.1,0.4,0,0.9,0.1,1.3
		c0.1,0.5,0.4,1,0.7,1.4c-0.3,0.4-0.6,0.9-0.7,1.4c-0.2,0.9-0.1,1.8,0.3,2.6c0.6,1.1,1.8,1.7,3,1.7c0.2,0,0.4,0,0.7-0.1
		c0.5,1.4,1.7,2.3,3.3,2.3c1.1,0,2.1-0.5,2.7-1.3c2.7,1.2,5.6,1.9,8.7,1.9h27.1c13,0,23.5-10.6,23.5-23.5
		C124.8,118.5,114.2,107.9,101.2,107.9z M67.2,149c-0.1,0.2-0.3,0.3-0.5,0.3c-0.1,0-0.2,0-0.3-0.1l-3.1-1.8v3.5
		c0,0.3-0.3,0.6-0.6,0.6c-0.3,0-0.6-0.3-0.6-0.6v-3.5l-3.1,1.8c-0.1,0.1-0.2,0.1-0.3,0.1c-0.2,0-0.4-0.1-0.5-0.3
		c-0.1-0.2-0.1-0.4-0.1-0.4c0-0.1,0.1-0.2,0.3-0.3l3.1-1.8l-3.1-1.8c-0.2-0.1-0.2-0.3-0.3-0.3c0-0.1,0-0.3,0.1-0.4
		c0.1-0.2,0.3-0.3,0.5-0.3c0.1,0,0.2,0,0.3,0.1l3.1,1.8v-3.5c0-0.3,0.3-0.6,0.6-0.6c0.3,0,0.6,0.3,0.6,0.6v3.5l3.1-1.8
		c0.1-0.1,0.2-0.1,0.3-0.1c0.2,0,0.4,0.1,0.5,0.3c0.2,0.3,0.1,0.6-0.2,0.8l-3.1,1.8l3.1,1.8c0.2,0.1,0.2,0.3,0.3,0.3
		C67.3,148.6,67.3,148.8,67.2,149z M101.2,151H74.1c-1.5,0-3-0.2-4.5-0.6c0.4-0.8,0.6-1.7,0.3-2.6c-0.1-0.5-0.4-1-0.7-1.4
		c0.9-1.1,1.1-2.7,0.4-4c-0.6-1.1-1.8-1.7-3-1.7c-0.2,0-0.4,0-0.7,0.1c-0.5-1.4-1.7-2.3-3.3-2.3s-2.8,1-3.3,2.3
		c-0.2,0-0.4-0.1-0.7-0.1c-0.1,0-0.3,0-0.4,0c-1-2.1-1.5-4.5-1.5-7c0-7.1,4.5-13.6,11.1-16.1l1.6-0.6l-0.3-1.7
		c-0.2-0.8-0.2-1.7-0.2-2.5c0-6.9,5.6-12.6,12.6-12.6c6.2,0,11.4,4.5,12.4,10.6l0.3,2.2l2.1-0.5c1.5-0.4,3.1-0.6,4.8-0.6
		c10.8,0,19.5,8.8,19.5,19.5C120.8,142.2,112,151,101.2,151z"/>
</g>
</svg>
