<?xml version="1.0" encoding="utf-8"?>
<!-- Generator: Adobe Illustrator 19.1.0, SVG Export Plug-In . SVG Version: 6.00 Build 0)  -->
<svg version="1.1" id="Layer_1" xmlns="http://www.w3.org/2000/svg" xmlns:xlink="http://www.w3.org/1999/xlink" x="0px" y="0px"
	 viewBox="0 0 36.7 30.5" style="enable-background:new 0 0 36.7 30.5;" xml:space="preserve">
<style type="text/css">
	.st0{fill:#FFFFFF;stroke:#545554;stroke-width:3.457;stroke-miterlimit:10;}
	.st1{fill:url(#SVGID_1_);stroke:#545554;stroke-width:0.5033;stroke-miterlimit:10;}
	.st2{fill:#545554;}
	.st3{fill:#FFFFFF;stroke:#545554;stroke-width:0.9499;stroke-miterlimit:10;}
</style>
<path class="st0" d="M38.9,83.6"/>
<g>
	<linearGradient id="SVGID_1_" gradientUnits="userSpaceOnUse" x1="0.75" y1="13.7827" x2="35.6707" y2="13.7827">
		<stop  offset="0" style="stop-color:#2E3192"/>
		<stop  offset="1" style="stop-color:#ED1C24"/>
	</linearGradient>
	<path class="st1" d="M18.2,5C8.6,5,0.7,12.9,0.7,22.6h2.7C3.5,14.5,10,7.9,18,7.9s14.5,6.5,14.5,14.6h3.1C35.7,12.9,27.9,5,18.2,5z
		"/>
	<g>
		<path class="st2" d="M31.1,15.4c0,0-0.2,0.2-0.5,0.5c-0.2,0.1-0.3,0.3-0.6,0.5c-0.1,0.1-0.2,0.2-0.3,0.3c-0.1,0.1-0.3,0.2-0.4,0.3
			c-1.2,0.7-2.8,1.6-4.5,2.5c-1.6,0.9-3.3,1.8-4.5,2.5c-0.2,0.1-0.3,0.2-0.4,0.2c-0.2,0-0.3,0.1-0.4,0.1c-0.3,0.1-0.5,0.1-0.7,0.2
			c-0.4,0.1-0.6,0.2-0.6,0.2s0.2-0.2,0.5-0.5c0.2-0.1,0.3-0.3,0.6-0.5c0.1-0.1,0.2-0.2,0.3-0.3c0.1-0.1,0.3-0.2,0.4-0.3
			c1.2-0.7,2.8-1.6,4.5-2.5c1.6-0.9,3.3-1.8,4.5-2.5c0.2-0.1,0.3-0.2,0.4-0.2c0.2,0,0.3-0.1,0.4-0.1c0.3-0.1,0.5-0.2,0.7-0.2
			C30.8,15.4,31.1,15.4,31.1,15.4z"/>
	</g>
	<path class="st3" d="M20.4,23.4c0,1.2-1,0.3-2.2,0.3c-1.2,0-2.2,0.9-2.2-0.3c0-1.2,1-2.2,2.2-2.2C19.4,21.2,20.4,22.2,20.4,23.4z"
		/>
</g>
</svg>
