<?xml version="1.0" encoding="utf-8"?>
<!-- Generator: Adobe Illustrator 19.1.0, SVG Export Plug-In . SVG Version: 6.00 Build 0)  -->
<svg version="1.1" id="Layer_1" xmlns="http://www.w3.org/2000/svg" xmlns:xlink="http://www.w3.org/1999/xlink" x="0px" y="0px"
	 viewBox="-22 15.5 54.5 71.5" style="enable-background:new -22 15.5 54.5 71.5;" xml:space="preserve">
<style type="text/css">
	.st0{fill:#5B5B5B;}
</style>
<path class="st0" d="M27.4,57L27.4,57L5.5,87l-22-30h0.1c-2.6-4-4.1-8.8-4.1-14c0-14.4,11.6-26,26-26s26,11.6,26,26
	C31.5,48.2,30,53,27.4,57z M5.5,20c-12.7,0-23,10.5-23,23.4c0,4.6,1.3,9,3.6,12.6H-14L5.5,83L25,56h-0.1c2.3-3.6,3.6-8,3.6-12.6
	C28.5,30.5,18.2,20,5.5,20z M5.5,53c-5.5,0-10-4.5-10-10S0,33,5.5,33s10,4.5,10,10S11,53,5.5,53z M5.5,36c-3.9,0-7,3.1-7,7
	s3.1,7,7,7s7-3.1,7-7S9.4,36,5.5,36z"/>
</svg>
