<?xml version="1.0" encoding="utf-8"?>
<!-- Generator: Adobe Illustrator 19.1.0, SVG Export Plug-In . SVG Version: 6.00 Build 0)  -->
<svg version="1.1" id="Layer_1" xmlns="http://www.w3.org/2000/svg" xmlns:xlink="http://www.w3.org/1999/xlink" x="0px" y="0px"
	 viewBox="0 0 36.7 30.5" style="enable-background:new 0 0 36.7 30.5;" xml:space="preserve">
<style type="text/css">
	.st0{fill:#FFFFFF;stroke:#545554;stroke-width:3.457;stroke-miterlimit:10;}
	.st1{fill:#616262;}
</style>
<path class="st0" d="M38.9,83.6"/>
<g>
	<path class="st1" d="M18.3,7.5c-4.3,0-7.7,3.5-7.7,7.7S14,23,18.3,23s7.7-3.5,7.7-7.7S22.5,7.5,18.3,7.5z M18.3,20.8
		c-3.1,0-5.6-2.5-5.6-5.6c0-3.1,2.5-5.6,5.6-5.6s5.6,2.5,5.6,5.6C23.8,18.3,21.3,20.8,18.3,20.8z"/>
	<path class="st1" d="M18.3,6.6c0.6,0,1.1-0.5,1.1-1.1V1.2c0-0.6-0.5-1.1-1.1-1.1s-1.1,0.5-1.1,1.1v4.2C17.2,6.1,17.7,6.6,18.3,6.6z
		"/>
	<path class="st1" d="M18.3,24.1c-0.6,0-1.1,0.5-1.1,1.1v4.2c0,0.6,0.5,1.1,1.1,1.1s1.1-0.5,1.1-1.1v-4.2
		C19.3,24.6,18.9,24.1,18.3,24.1z"/>
	<path class="st1" d="M9.5,15.3c0-0.6-0.5-1.1-1.1-1.1H4.2c-0.6,0-1.1,0.5-1.1,1.1c0,0.6,0.5,1.1,1.1,1.1h4.2
		C9,16.4,9.5,15.9,9.5,15.3z"/>
	<path class="st1" d="M32.3,14.2h-4.2c-0.6,0-1.1,0.5-1.1,1.1c0,0.6,0.5,1.1,1.1,1.1h4.2c0.6,0,1.1-0.5,1.1-1.1
		C33.4,14.7,32.9,14.2,32.3,14.2z"/>
	<path class="st1" d="M10.5,9.1c0.2,0.2,0.5,0.3,0.8,0.3c0.3,0,0.6-0.1,0.8-0.3c0.4-0.4,0.4-1.1,0-1.5l-3-3c-0.4-0.4-1.1-0.4-1.5,0
		C7.1,5,7.1,5.7,7.5,6.1L10.5,9.1z"/>
	<path class="st1" d="M26,21.5c-0.4-0.4-1.1-0.4-1.5,0c-0.4,0.4-0.4,1.1,0,1.5l3,3c0.2,0.2,0.5,0.3,0.8,0.3c0.3,0,0.6-0.1,0.8-0.3
		c0.4-0.4,0.4-1.1,0-1.5L26,21.5z"/>
	<path class="st1" d="M10.5,21.5l-3,3c-0.4,0.4-0.4,1.1,0,1.5c0.2,0.2,0.5,0.3,0.8,0.3c0.3,0,0.6-0.1,0.8-0.3l3-3
		c0.4-0.4,0.4-1.1,0-1.5C11.6,21.1,11,21.1,10.5,21.5z"/>
	<path class="st1" d="M25.2,9.5c0.3,0,0.6-0.1,0.8-0.3l3-3c0.4-0.4,0.4-1.1,0-1.5c-0.4-0.4-1.1-0.4-1.5,0l-3,3C24,8,24,8.7,24.4,9.1
		C24.7,9.3,24.9,9.5,25.2,9.5z"/>
</g>
</svg>
